<svg version="1" xmlns="http://www.w3.org/2000/svg" width="682.667" height="682.667" viewBox="0 0 512.000000 512.000000"><path d="M128.8 28.5c-.2.1-2.8.5-5.8.8-23 2.5-50.7 14.5-70 30.6-15.6 12.9-27.5 27.8-36.4 45.7-4.7 9.4-10 24-11.6 32.1-.5 2.6-1.2 5.9-1.4 7.2-2.4 11.3-2.4 34.9 0 46.6.3 1.1 1.1 5.6 2 10 2.1 11.5 4.2 19.7 7.6 30.5 2.9 9.2 9.8 27.2 11.7 30.8.6.9 2.8 5.3 4.9 9.7 18.4 37.4 45.3 74.5 79.1 109 17.7 18.1 41.5 39.6 51.5 46.4 1.2.8 2.3 1.8 2.6 2.1 1.6 2.1 32.9 23.9 39.5 27.6 1.1.6 6.3 3.5 11.5 6.5 11.3 6.5 23.7 12.7 34.3 16.9l7.7 3.1 7.6-3.1c29.6-11.8 65.7-34.3 97.9-60.9 27.6-22.9 55.5-51.5 76.5-78.4 4.4-5.6 8.4-10.7 8.8-11.2.5-.6 1.7-2.4 2.8-4 1-1.7 2.2-3.2 2.5-3.5.4-.3 4.9-7 10-15 21.1-33 37.1-69.7 42.5-97.5.2-1.1.8-4.3 1.4-7 .5-2.8 1.2-6.1 1.4-7.5.3-1.4.7-3.6 1.1-5 .6-3.1 1.9-19.2 1.8-24.5-.2-23.9-8-50.9-20.5-71.5-9.9-16.2-25.9-32.7-42.4-43.8-5.9-4-23.8-13.2-27.9-14.4-24.9-7.5-27.6-7.9-46.5-8.3-15.7-.3-25.4.7-37.8 3.9-29.6 7.7-56.2 25.1-75.2 49.1-1.8 2.2-3.5 4-3.9 4-.4 0-3.4-3.2-6.6-7-23.1-27.2-52.7-43.8-87.5-49-7.2-1.1-32.2-1.8-33.2-1z"/></svg>